<svg width="109" height="143" viewBox="0 0 109 143" fill="none" xmlns="http://www.w3.org/2000/svg">
<g clip-path="url(#clip0_941_4258)">
<path d="M6.82341 66.4949H14.4039C16.4806 66.4949 18.0203 65.9429 19.0514 64.8242C20.068 63.7199 20.5902 62.3107 20.5902 60.6108C20.5902 58.9254 20.0683 57.5016 19.0372 56.3683C18.0061 55.2351 16.4661 54.6685 14.4039 54.6685H6.82341V66.4949ZM6.82341 69.764V82.0565H2.68359V51.3994H14.4039C17.6715 51.3994 20.2133 52.2417 22.0141 53.9272C23.8294 55.6126 24.73 57.8357 24.73 60.5817C24.73 63.3714 23.8294 65.609 22.0141 67.2654C20.2133 68.9217 17.6715 69.764 14.4039 69.764H6.82341Z" fill="#061319"/>
<path d="M68.7304 82.0565H64.5764L49.8367 58.3441L49.7062 58.3881V82.0565H45.5664V51.3994H49.7062L64.4459 75.0678L64.5764 75.0238V51.3994H68.7304V82.0565Z" fill="#061319"/>
<path d="M99.6519 67.8464H85.6086V78.7874H101.801V82.0565H81.4688V51.3994H101.569V54.6685H85.6086V64.5773H99.6519V67.8464Z" fill="#061319"/>
<path d="M12.4987 113.976L13.195 116.389H13.3113L14.0091 113.976L21.9228 90.9473H26.3959L15.0103 121.59H11.4676L0.0820312 90.9473H4.5835L12.4987 113.976Z" fill="#061319"/>
<path d="M65.5816 107.38H51.5383V118.335H67.716V121.59H47.3984V90.9473H67.4834V94.2022H51.5383V104.126H65.5816V107.38Z" fill="#061319"/>
<path d="M82.1649 110.983L82.7307 114.819L82.8626 114.833L83.6895 110.983L89.2957 90.9473H92.9548L98.6192 110.983L99.4616 114.921H99.5921L100.202 110.983L104.762 90.9473H108.916L101.524 121.59H97.8207L91.7791 100.333L91.2415 97.5727H91.1111L90.5877 100.333L84.4454 121.59H80.7409L73.3789 90.9473H77.5031L82.1649 110.983Z" fill="#061319"/>
<path d="M31.5025 1.92592C30.4266 4.96841 28.4933 6.91982 25.7173 7.75014C23.4341 8.7693 24.7258 12.3124 26.9303 12.3273H27.9217C24.86 13.919 21.6845 15.2679 18.6256 16.5958C16.424 17.564 17.5496 21.3499 19.8357 21.194C23.8151 20.9077 27.7695 20.3297 31.6687 19.4645C23.7519 23.715 15.4326 27.276 7.27667 30.3875C6.68863 30.5835 6.19686 31.0053 5.90386 31.5649C5.61086 32.1244 5.53922 32.7787 5.70389 33.3912C5.86855 34.0037 6.2568 34.5273 6.78773 34.8528C7.31866 35.1783 7.95133 35.2807 8.55386 35.1385C14.2721 34.1014 20.0049 33.0133 25.7173 31.7333C22.7605 32.8754 19.7658 33.9125 16.809 34.8628C14.3391 35.6421 14.657 40.0305 17.4476 39.6828C23.8627 38.9064 30.3245 37.9742 36.7309 36.8501C33.0972 38.0233 29.3903 38.9416 25.6356 39.5989C22.9442 40.0635 23.5944 44.5388 26.2742 44.4369C30.9398 44.248 32.2928 44.263 32.2928 49.137L32.1849 121.628H36.9933L37.1012 49.137C37.1012 46.1395 36.5793 43.8314 35.5528 42.3626C43.9973 39.9619 52.0725 36.3557 59.5425 31.6494C61.8462 30.1956 60.3503 26.4127 57.7084 27.1531C51.3545 28.9157 44.916 30.3665 38.428 31.5775C42.6168 29.5276 46.6315 27.1212 50.4301 24.3834C52.4713 22.8847 51.2874 18.802 48.5814 19.8871C42.6589 22.196 36.594 24.0986 30.4266 25.5824C37.9906 21.7456 45.2368 17.3242 51.8269 12.0936C51.8269 12.0756 51.8589 12.0576 51.8764 12.0576V12.0396C52.0281 11.9197 52.1943 11.7998 52.3634 11.6589C54.5825 9.86039 51.7598 6.56312 49.4737 7.80709C45.0464 10.1678 40.3916 12.0474 35.5849 13.4155C37.2889 12.2898 38.8974 11.0183 40.3933 9.61459C42.4783 7.62723 39.8102 4.55177 37.4774 5.74479C36.6361 6.1564 35.7569 6.48074 34.853 6.71299C35.4593 5.62927 35.8851 4.44894 36.1127 3.22086C36.483 1.3564 34.9463 0.145393 33.5583 0.145393C33.0627 0.130711 32.5792 0.304121 32.2 0.632528C31.8208 0.960935 31.5726 1.42135 31.5025 1.92592Z" fill="#061319"/>
</g>
<defs>
<clipPath id="clip0_941_4258">
<rect width="109" height="142.856" fill="white" transform="translate(0 0.144531)"/>
</clipPath>
</defs>
</svg>
